<?xml version="1.0" encoding="UTF-8"?><svg version="1.2" baseProfile="tiny" viewBox="0 0 32 32" width="32px" height="32px" xmlns="http://www.w3.org/2000/svg"><g fill="#fbb"><rect stroke-width="0" height="1" x="3" y="5" width="1"/><rect stroke-width="0" x="4" y="5" width="1" height="1"/><rect stroke-width="0" x="5" y="5" width="9" height="1"/><rect stroke-width="0" x="14" y="5" width="1" height="1"/><rect stroke-width="0" height="1" x="15" y="5" width="1"/><rect stroke-width="0" x="16" y="5" width="1" height="1"/><rect stroke-width="0" width="1" height="1" x="3" y="8"/><rect stroke-width="0" x="4" y="8" width="1" height="1"/><rect stroke-width="0" x="5" y="8" width="9" height="1"/><rect stroke-width="0" y="8" width="1" height="1" x="14"/><rect stroke-width="0" y="8" width="1" height="1" x="15"/><rect stroke-width="0" y="8" width="1" height="1" x="16"/><rect stroke-width="0" width="1" height="1" x="3" y="23"/><rect stroke-width="0" x="4" y="23" width="1" height="1"/><rect stroke-width="0" height="1" x="5" y="23" width="9"/><rect stroke-width="0" x="14" y="23" width="1" height="1"/><rect stroke-width="0" x="15" y="23" width="1" height="1"/><rect stroke-width="0" width="1" height="1" x="16" y="23"/><rect stroke-width="0" x="3" y="26" width="1" height="1"/><rect stroke-width="0" width="1" height="1" x="4" y="26"/><rect stroke-width="0" x="5" y="26" width="9" height="1"/><rect stroke-width="0" height="1" x="14" y="26" width="1"/><rect stroke-width="0" y="26" width="1" height="1" x="15"/><rect stroke-width="0" x="16" y="26" width="1" height="1"/></g><g fill="#9bb"><rect stroke-width="0" x="26" y="5" width="1" height="1"/><rect stroke-width="0" x="27" y="8" width="1" height="1"/><rect stroke-width="0" x="27" y="23" width="1" height="1"/><rect stroke-width="0" x="26" y="26" width="1" height="1"/></g><g fill="#e66"><rect stroke-width="0" y="6" width="1" height="1" x="2"/><rect stroke-width="0" y="6" width="1" height="1" x="17"/><rect stroke-width="0" x="2" y="7" width="1" height="1"/><rect stroke-width="0" x="17" y="7" width="1" height="1"/><rect stroke-width="0" x="2" y="24" width="1" height="1"/><rect stroke-width="0" x="17" y="24" width="1" height="1"/><rect stroke-width="0" y="25" width="1" height="1" x="2"/><rect stroke-width="0" x="17" y="25" width="1" height="1"/></g><g fill="#bdd"><rect stroke-width="0" width="1" height="15" x="30" y="8"/><rect stroke-width="0" height="1" x="27" y="12" width="1"/><rect stroke-width="0" width="1" height="5" x="27" y="13"/><rect stroke-width="0" x="27" y="18" width="1" height="1"/><rect stroke-width="0" height="1" x="27" y="19" width="1"/><rect stroke-width="0" width="1" height="1" x="30" y="23"/></g><g fill="#777"><rect stroke-width="0" x="2" y="12" width="1" height="1"/><rect stroke-width="0" x="17" y="12" width="1" height="1"/><rect stroke-width="0" y="13" width="1" height="1" x="2"/><rect stroke-width="0" x="17" y="13" width="1" height="1"/><rect stroke-width="0" x="2" y="18" width="1" height="1"/><rect stroke-width="0" x="17" y="18" width="1" height="1"/><rect stroke-width="0" x="2" y="19" width="1" height="1"/><rect stroke-width="0" x="17" y="19" width="1" height="1"/></g><g fill="#cdd"><rect stroke-width="0" x="26" y="3" width="1" height="1"/><rect stroke-width="0" x="26" y="4" width="1" height="1"/><rect stroke-width="0" y="5" width="1" height="1" x="27"/><rect stroke-width="0" x="28" y="5" width="1" height="1"/><rect stroke-width="0" width="1" height="1" x="30" y="7"/><rect stroke-width="0" width="1" height="1" x="26" y="10"/><rect stroke-width="0" x="27" y="10" width="1" height="1"/><rect stroke-width="0" x="27" y="11" width="1" height="1"/><rect stroke-width="0" x="27" y="20" width="1" height="1"/><rect stroke-width="0" x="26" y="21" width="1" height="1"/><rect stroke-width="0" x="27" y="21" width="1" height="1"/><rect stroke-width="0" x="30" y="24" width="1" height="1"/><rect stroke-width="0" x="27" y="26" width="1" height="1"/><rect stroke-width="0" x="28" y="26" width="1" height="1"/><rect stroke-width="0" y="27" width="1" height="1" x="26"/><rect stroke-width="0" height="1" x="26" y="28" width="1"/></g><g fill="#fcc"><rect stroke-width="0" y="5" width="1" height="1" x="2"/><rect stroke-width="0" height="1" x="17" y="5" width="1"/><rect stroke-width="0" x="2" y="8" width="1" height="1"/><rect stroke-width="0" y="8" width="1" height="1" x="17"/><rect stroke-width="0" x="2" y="23" width="1" height="1"/><rect stroke-width="0" width="1" height="1" x="17" y="23"/><rect stroke-width="0" x="2" y="26" width="1" height="1"/><rect stroke-width="0" y="26" width="1" height="1" x="17"/></g><g fill="#6aa"><rect stroke-width="0" y="2" width="1" height="1" x="24"/><rect stroke-width="0" width="1" height="1" x="25" y="2"/><rect stroke-width="0" width="1" height="1" x="22" y="4"/><rect stroke-width="0" x="20" y="6" width="1" height="1"/><rect stroke-width="0" height="1" x="29" y="6" width="1"/><rect stroke-width="0" height="1" x="20" y="7" width="1"/><rect stroke-width="0" x="22" y="9" width="1" height="1"/><rect stroke-width="0" x="24" y="11" width="1" height="1"/><rect stroke-width="0" x="25" y="11" width="1" height="1"/><rect stroke-width="0" x="24" y="20" width="1" height="1"/><rect stroke-width="0" x="25" y="20" width="1" height="1"/><rect stroke-width="0" width="1" height="1" x="22" y="22"/><rect stroke-width="0" x="20" y="24" width="1" height="1"/><rect stroke-width="0" x="20" y="25" width="1" height="1"/><rect stroke-width="0" x="29" y="25" width="1" height="1"/><rect stroke-width="0" x="22" y="27" width="1" height="1"/><rect stroke-width="0" width="1" height="1" x="24" y="29"/><rect stroke-width="0" x="25" y="29" width="1" height="1"/></g><g fill="#388"><rect stroke-width="0" x="25" y="3" width="1" height="1"/><rect stroke-width="0" x="25" y="4" width="1" height="1"/><rect stroke-width="0" width="1" height="1" x="27" y="6"/><rect stroke-width="0" y="6" width="1" height="1" x="28"/><rect stroke-width="0" x="29" y="7" width="1" height="15"/><rect stroke-width="0" y="8" width="1" height="1" x="25"/><rect stroke-width="0" x="25" y="10" width="1" height="1"/><rect stroke-width="0" x="28" y="11" width="1" height="1"/><rect stroke-width="0" x="28" y="12" width="1" height="5"/><rect stroke-width="0" y="17" width="1" height="2" x="28"/><rect stroke-width="0" width="1" height="1" x="28" y="19"/><rect stroke-width="0" x="28" y="20" width="1" height="1"/><rect stroke-width="0" x="25" y="21" width="1" height="1"/><rect stroke-width="0" x="29" y="22" width="1" height="2"/><rect stroke-width="0" x="25" y="23" width="1" height="1"/><rect stroke-width="0" width="1" height="1" x="29" y="24"/><rect stroke-width="0" x="27" y="25" width="1" height="1"/><rect stroke-width="0" y="25" width="1" height="1" x="28"/><rect stroke-width="0" x="25" y="27" width="1" height="1"/><rect stroke-width="0" x="25" y="28" width="1" height="1"/></g><g fill="#ddd"><rect stroke-width="0" x="2" y="11" width="1" height="1"/><rect stroke-width="0" x="17" y="11" width="1" height="1"/><rect stroke-width="0" x="1" y="12" width="1" height="1"/><rect stroke-width="0" y="12" width="1" height="1" x="18"/><rect stroke-width="0" x="1" y="13" width="1" height="1"/><rect stroke-width="0" width="1" height="1" x="18" y="13"/><rect stroke-width="0" x="2" y="14" width="1" height="1"/><rect stroke-width="0" x="17" y="14" width="1" height="1"/><rect stroke-width="0" x="2" y="17" width="1" height="1"/><rect stroke-width="0" height="1" x="17" y="17" width="1"/><rect stroke-width="0" x="1" y="18" width="1" height="1"/><rect stroke-width="0" y="18" width="1" height="1" x="18"/><rect stroke-width="0" x="1" y="19" width="1" height="1"/><rect stroke-width="0" width="1" height="1" x="18" y="19"/><rect stroke-width="0" y="20" width="1" height="1" x="2"/><rect stroke-width="0" x="17" y="20" width="1" height="1"/></g><g fill="#555"><rect stroke-width="0" x="3" y="12" width="1" height="1"/><rect stroke-width="0" x="4" y="12" width="1" height="1"/><rect stroke-width="0" x="5" y="12" width="9" height="1"/><rect stroke-width="0" x="14" y="12" width="1" height="1"/><rect stroke-width="0" x="15" y="12" width="1" height="1"/><rect stroke-width="0" x="16" y="12" width="1" height="1"/><rect stroke-width="0" x="3" y="13" width="1" height="1"/><rect stroke-width="0" x="4" y="13" width="1" height="1"/><rect stroke-width="0" y="13" width="9" height="1" x="5"/><rect stroke-width="0" y="13" width="1" height="1" x="14"/><rect stroke-width="0" height="1" x="15" y="13" width="1"/><rect stroke-width="0" height="1" x="16" y="13" width="1"/><rect stroke-width="0" x="3" y="18" width="1" height="1"/><rect stroke-width="0" height="1" x="4" y="18" width="1"/><rect stroke-width="0" x="5" y="18" width="9" height="1"/><rect stroke-width="0" x="14" y="18" width="1" height="1"/><rect stroke-width="0" x="15" y="18" width="1" height="1"/><rect stroke-width="0" height="1" x="16" y="18" width="1"/><rect stroke-width="0" x="3" y="19" width="1" height="1"/><rect stroke-width="0" x="4" y="19" width="1" height="1"/><rect stroke-width="0" x="5" y="19" width="9" height="1"/><rect stroke-width="0" width="1" height="1" x="14" y="19"/><rect stroke-width="0" y="19" width="1" height="1" x="15"/><rect stroke-width="0" x="16" y="19" width="1" height="1"/></g><g fill="#fff"><rect stroke-width="0" width="31" height="1"/><rect stroke-width="0" x="31" width="1" height="31"/><rect stroke-width="0" y="1" width="22" height="1"/><rect stroke-width="0" width="1" height="1" x="22" y="1"/><rect stroke-width="0" x="23" y="1" width="1" height="1"/><rect stroke-width="0" y="1" width="1" height="1" x="26"/><rect stroke-width="0" height="3" x="27" y="1" width="4"/><rect stroke-width="0" y="2" width="22" height="1"/><rect stroke-width="0" width="1" height="1" x="22" y="2"/><rect stroke-width="0" y="3" width="20" height="1"/><rect stroke-width="0" x="20" y="3" width="1" height="1"/><rect stroke-width="0" x="21" y="3" width="1" height="1"/><rect stroke-width="0" y="4" width="20" height="1"/><rect stroke-width="0" x="20" y="4" width="1" height="1"/><rect stroke-width="0" x="27" y="4" width="4" height="1"/><rect stroke-width="0" y="5" width="1" height="26"/><rect stroke-width="0" x="1" y="5" width="1" height="1"/><rect stroke-width="0" x="18" y="5" width="1" height="1"/><rect stroke-width="0" x="19" y="5" width="1" height="1"/><rect stroke-width="0" x="30" y="5" width="1" height="1"/><rect stroke-width="0" x="1" y="8" width="1" height="1"/><rect stroke-width="0" x="18" y="8" width="1" height="1"/><rect stroke-width="0" width="1" height="1" x="19" y="8"/><rect stroke-width="0" x="1" y="9" width="19" height="1"/><rect stroke-width="0" x="20" y="9" width="1" height="13"/><rect stroke-width="0" x="1" y="10" width="19" height="1"/><rect stroke-width="0" height="1" x="21" y="10" width="1"/><rect stroke-width="0" height="1" x="1" y="11" width="1"/><rect stroke-width="0" width="1" height="1" x="18" y="11"/><rect stroke-width="0" width="3" height="9" x="19" y="11"/><rect stroke-width="0" width="1" height="9" x="22" y="11"/><rect stroke-width="0" height="1" x="23" y="12" width="1"/><rect stroke-width="0" height="1" x="26" y="12" width="1"/><rect stroke-width="0" height="5" x="23" y="13" width="3"/><rect stroke-width="0" height="5" x="26" y="13" width="1"/><rect stroke-width="0" x="1" y="14" width="1" height="1"/><rect stroke-width="0" x="18" y="14" width="1" height="1"/><rect stroke-width="0" x="1" y="15" width="25" height="1"/><rect stroke-width="0" x="1" y="16" width="25" height="1"/><rect stroke-width="0" x="1" y="17" width="1" height="1"/><rect stroke-width="0" width="1" height="1" x="18" y="17"/><rect stroke-width="0" x="23" y="18" width="3" height="1"/><rect stroke-width="0" width="1" height="1" x="26" y="18"/><rect stroke-width="0" width="1" height="1" x="23" y="19"/><rect stroke-width="0" y="19" width="1" height="1" x="26"/><rect stroke-width="0" x="1" y="20" width="1" height="1"/><rect stroke-width="0" x="18" y="20" width="1" height="1"/><rect stroke-width="0" x="19" y="20" width="3" height="1"/><rect stroke-width="0" width="1" height="1" x="22" y="20"/><rect stroke-width="0" x="1" y="21" width="19" height="1"/><rect stroke-width="0" width="1" height="1" x="21" y="21"/><rect stroke-width="0" x="1" y="22" width="19" height="1"/><rect stroke-width="0" x="20" y="22" width="1" height="1"/><rect stroke-width="0" x="1" y="23" width="1" height="1"/><rect stroke-width="0" x="18" y="23" width="1" height="1"/><rect stroke-width="0" x="19" y="23" width="1" height="1"/><rect stroke-width="0" x="1" y="26" width="1" height="1"/><rect stroke-width="0" x="18" y="26" width="1" height="1"/><rect stroke-width="0" y="26" width="1" height="1" x="19"/><rect stroke-width="0" x="30" y="26" width="1" height="1"/><rect stroke-width="0" width="19" height="4" x="1" y="27"/><rect stroke-width="0" x="20" y="27" width="1" height="4"/><rect stroke-width="0" width="4" height="4" x="27" y="27"/><rect stroke-width="0" x="21" y="28" width="1" height="1"/><rect stroke-width="0" x="21" y="29" width="1" height="2"/><rect stroke-width="0" x="22" y="29" width="1" height="2"/><rect stroke-width="0" x="23" y="30" width="1" height="1"/><rect stroke-width="0" x="26" y="30" width="1" height="1"/><rect stroke-width="0" height="1" y="31" width="31"/><rect stroke-width="0" x="31" y="31" width="1" height="1"/></g><g fill="#dee"><rect stroke-width="0" height="1" x="24" y="1" width="1"/><rect stroke-width="0" x="25" y="1" width="1" height="1"/><rect stroke-width="0" x="23" y="2" width="1" height="1"/><rect stroke-width="0" x="22" y="3" width="1" height="1"/><rect stroke-width="0" height="1" x="21" y="4" width="1"/><rect stroke-width="0" x="20" y="5" width="1" height="1"/><rect stroke-width="0" y="5" width="1" height="1" x="29"/><rect stroke-width="0" x="19" y="6" width="1" height="1"/><rect stroke-width="0" height="1" x="30" y="6" width="1"/><rect stroke-width="0" x="19" y="7" width="1" height="1"/><rect stroke-width="0" y="8" width="1" height="1" x="20"/><rect stroke-width="0" height="1" x="21" y="9" width="1"/><rect stroke-width="0" x="22" y="10" width="1" height="1"/><rect stroke-width="0" x="23" y="11" width="1" height="1"/><rect stroke-width="0" x="26" y="11" width="1" height="1"/><rect stroke-width="0" x="24" y="12" width="1" height="1"/><rect stroke-width="0" y="12" width="1" height="1" x="25"/><rect stroke-width="0" y="19" width="1" height="1" x="24"/><rect stroke-width="0" height="1" x="25" y="19" width="1"/><rect stroke-width="0" x="23" y="20" width="1" height="1"/><rect stroke-width="0" height="1" x="26" y="20" width="1"/><rect stroke-width="0" x="22" y="21" width="1" height="1"/><rect stroke-width="0" width="1" height="1" x="21" y="22"/><rect stroke-width="0" x="20" y="23" width="1" height="1"/><rect stroke-width="0" height="1" x="19" y="24" width="1"/><rect stroke-width="0" height="1" x="19" y="25" width="1"/><rect stroke-width="0" x="30" y="25" width="1" height="1"/><rect stroke-width="0" x="20" y="26" width="1" height="1"/><rect stroke-width="0" x="29" y="26" width="1" height="1"/><rect stroke-width="0" x="21" y="27" width="1" height="1"/><rect stroke-width="0" x="22" y="28" width="1" height="1"/><rect stroke-width="0" x="23" y="29" width="1" height="1"/><rect stroke-width="0" x="24" y="30" width="1" height="1"/><rect stroke-width="0" x="25" y="30" width="1" height="1"/></g><g fill="#288"><rect stroke-width="0" height="1" x="24" y="3" width="1"/><rect stroke-width="0" y="4" width="1" height="1" x="23"/><rect stroke-width="0" height="1" x="22" y="5" width="1"/><rect stroke-width="0" x="25" y="5" width="1" height="1"/><rect stroke-width="0" height="1" x="21" y="6" width="1"/><rect stroke-width="0" width="1" height="1" x="26" y="6"/><rect stroke-width="0" x="21" y="7" width="1" height="1"/><rect stroke-width="0" y="7" width="1" height="1" x="26"/><rect stroke-width="0" width="1" height="1" x="27" y="7"/><rect stroke-width="0" x="22" y="8" width="1" height="1"/><rect stroke-width="0" x="28" y="8" width="1" height="1"/><rect stroke-width="0" x="23" y="9" width="1" height="1"/><rect stroke-width="0" width="1" height="1" x="24" y="10"/><rect stroke-width="0" height="1" x="24" y="21" width="1"/><rect stroke-width="0" x="23" y="22" width="1" height="1"/><rect stroke-width="0" x="22" y="23" width="1" height="1"/><rect stroke-width="0" x="28" y="23" width="1" height="1"/><rect stroke-width="0" width="1" height="1" x="21" y="24"/><rect stroke-width="0" x="26" y="24" width="1" height="1"/><rect stroke-width="0" x="27" y="24" width="1" height="1"/><rect stroke-width="0" y="25" width="1" height="1" x="21"/><rect stroke-width="0" x="26" y="25" width="1" height="1"/><rect stroke-width="0" width="1" height="1" x="22" y="26"/><rect stroke-width="0" y="26" width="1" height="1" x="25"/><rect stroke-width="0" width="1" height="1" x="23" y="27"/><rect stroke-width="0" x="24" y="28" width="1" height="1"/></g><g fill="#066"><rect stroke-width="0" width="1" height="1" x="24" y="4"/><rect stroke-width="0" x="23" y="5" width="1" height="1"/><rect stroke-width="0" y="5" width="1" height="1" x="24"/><rect stroke-width="0" y="6" width="1" height="1" x="23"/><rect stroke-width="0" y="6" width="1" height="1" x="24"/><rect stroke-width="0" y="7" width="1" height="1" x="23"/><rect stroke-width="0" x="24" y="7" width="1" height="1"/><rect stroke-width="0" x="28" y="7" width="1" height="1"/><rect stroke-width="0" x="23" y="8" width="1" height="1"/><rect stroke-width="0" y="8" width="1" height="1" x="24"/><rect stroke-width="0" x="24" y="9" width="1" height="1"/><rect stroke-width="0" width="1" height="1" x="24" y="22"/><rect stroke-width="0" width="1" height="1" x="23" y="23"/><rect stroke-width="0" x="24" y="23" width="1" height="1"/><rect stroke-width="0" y="24" width="1" height="1" x="23"/><rect stroke-width="0" x="24" y="24" width="1" height="1"/><rect stroke-width="0" height="1" x="28" y="24" width="1"/><rect stroke-width="0" x="23" y="25" width="1" height="1"/><rect stroke-width="0" x="24" y="25" width="1" height="1"/><rect stroke-width="0" x="23" y="26" width="1" height="1"/><rect stroke-width="0" x="24" y="26" width="1" height="1"/><rect stroke-width="0" x="24" y="27" width="1" height="1"/></g><g fill="#e33"><rect stroke-width="0" x="3" y="6" width="1" height="1"/><rect stroke-width="0" x="4" y="6" width="1" height="1"/><rect stroke-width="0" x="5" y="6" width="9" height="1"/><rect stroke-width="0" x="14" y="6" width="1" height="1"/><rect stroke-width="0" height="1" x="15" y="6" width="1"/><rect stroke-width="0" x="16" y="6" width="1" height="1"/><rect stroke-width="0" x="3" y="7" width="1" height="1"/><rect stroke-width="0" width="1" height="1" x="4" y="7"/><rect stroke-width="0" y="7" width="9" height="1" x="5"/><rect stroke-width="0" x="14" y="7" width="1" height="1"/><rect stroke-width="0" x="15" y="7" width="1" height="1"/><rect stroke-width="0" x="16" y="7" width="1" height="1"/><rect stroke-width="0" x="3" y="24" width="1" height="1"/><rect stroke-width="0" x="4" y="24" width="1" height="1"/><rect stroke-width="0" width="9" height="1" x="5" y="24"/><rect stroke-width="0" x="14" y="24" width="1" height="1"/><rect stroke-width="0" x="15" y="24" width="1" height="1"/><rect stroke-width="0" x="16" y="24" width="1" height="1"/><rect stroke-width="0" x="3" y="25" width="1" height="1"/><rect stroke-width="0" y="25" width="1" height="1" x="4"/><rect stroke-width="0" x="5" y="25" width="9" height="1"/><rect stroke-width="0" y="25" width="1" height="1" x="14"/><rect stroke-width="0" width="1" height="1" x="15" y="25"/><rect stroke-width="0" y="25" width="1" height="1" x="16"/></g><g fill="#077"><rect stroke-width="0" x="22" y="6" width="1" height="1"/><rect stroke-width="0" x="25" y="6" width="1" height="1"/><rect stroke-width="0" x="22" y="7" width="1" height="1"/><rect stroke-width="0" x="25" y="7" width="1" height="1"/><rect stroke-width="0" x="22" y="24" width="1" height="1"/><rect stroke-width="0" x="25" y="24" width="1" height="1"/><rect stroke-width="0" width="1" height="1" x="22" y="25"/><rect stroke-width="0" x="25" y="25" width="1" height="1"/></g><g fill="#9cc"><rect stroke-width="0" x="26" y="8" width="1" height="1"/><rect stroke-width="0" x="26" y="23" width="1" height="1"/></g><g fill="#399"><rect stroke-width="0" x="25" y="9" width="1" height="1"/><rect stroke-width="0" x="28" y="9" width="1" height="1"/><rect stroke-width="0" x="28" y="10" width="1" height="1"/><rect stroke-width="0" x="28" y="21" width="1" height="1"/><rect stroke-width="0" y="22" width="1" height="1" x="25"/><rect stroke-width="0" x="28" y="22" width="1" height="1"/></g><g fill="#cee"><rect stroke-width="0" x="26" y="2" width="1" height="1"/><rect stroke-width="0" x="26" y="9" width="1" height="1"/><rect stroke-width="0" x="27" y="9" width="1" height="1"/><rect stroke-width="0" x="26" y="22" width="1" height="1"/><rect stroke-width="0" height="1" x="27" y="22" width="1"/><rect stroke-width="0" y="29" width="1" height="1" x="26"/></g><g fill="#8bb"><rect stroke-width="0" y="3" width="1" height="1" x="23"/><rect stroke-width="0" x="21" y="5" width="1" height="1"/><rect stroke-width="0" height="1" x="21" y="8" width="1"/><rect stroke-width="0" x="23" y="10" width="1" height="1"/><rect stroke-width="0" height="1" x="23" y="21" width="1"/><rect stroke-width="0" x="21" y="23" width="1" height="1"/><rect stroke-width="0" width="1" height="1" x="21" y="26"/><rect stroke-width="0" x="23" y="28" width="1" height="1"/></g><g fill="#ccc"><rect stroke-width="0" x="3" y="11" width="1" height="1"/><rect stroke-width="0" x="4" y="11" width="1" height="1"/><rect stroke-width="0" height="1" x="5" y="11" width="9"/><rect stroke-width="0" x="14" y="11" width="1" height="1"/><rect stroke-width="0" x="15" y="11" width="1" height="1"/><rect stroke-width="0" x="16" y="11" width="1" height="1"/><rect stroke-width="0" height="1" x="3" y="14" width="1"/><rect stroke-width="0" x="4" y="14" width="1" height="1"/><rect stroke-width="0" x="5" y="14" width="9" height="1"/><rect stroke-width="0" x="14" y="14" width="1" height="1"/><rect stroke-width="0" x="15" y="14" width="1" height="1"/><rect stroke-width="0" x="16" y="14" width="1" height="1"/><rect stroke-width="0" x="3" y="17" width="1" height="1"/><rect stroke-width="0" x="4" y="17" width="1" height="1"/><rect stroke-width="0" x="5" y="17" width="9" height="1"/><rect stroke-width="0" x="14" y="17" width="1" height="1"/><rect stroke-width="0" x="15" y="17" width="1" height="1"/><rect stroke-width="0" y="17" width="1" height="1" x="16"/><rect stroke-width="0" y="20" width="1" height="1" x="3"/><rect stroke-width="0" x="4" y="20" width="1" height="1"/><rect stroke-width="0" x="5" y="20" width="9" height="1"/><rect stroke-width="0" x="14" y="20" width="1" height="1"/><rect stroke-width="0" x="15" y="20" width="1" height="1"/><rect stroke-width="0" y="20" width="1" height="1" x="16"/></g><g fill="#fdd"><rect stroke-width="0" height="1" x="1" y="6" width="1"/><rect stroke-width="0" x="18" y="6" width="1" height="1"/><rect stroke-width="0" x="1" y="7" width="1" height="1"/><rect stroke-width="0" x="18" y="7" width="1" height="1"/><rect stroke-width="0" x="1" y="24" width="1" height="1"/><rect stroke-width="0" y="24" width="1" height="1" x="18"/><rect stroke-width="0" width="1" height="1" x="1" y="25"/><rect stroke-width="0" height="1" x="18" y="25" width="1"/></g></svg>