<?xml version="1.0" encoding="UTF-8"?><svg xmlns="http://www.w3.org/2000/svg" version="1.2" baseProfile="tiny" viewBox="0 0 160 160" width="160px" height="160px"><g fill="#fff"><rect stroke-width="0" width="10" height="1" fill="#fff"/><rect stroke-width="0" height="1" fill="#fff" x="1" width="10"/><rect stroke-width="0" x="2" width="10" height="1" fill="#fff"/><rect stroke-width="0" x="3" width="10" height="1" fill="#fff"/><rect stroke-width="0" x="4" width="10" height="1" fill="#fff"/><rect stroke-width="0" x="5" width="10" height="1" fill="#fff"/><rect stroke-width="0" width="10" height="1" fill="#fff" x="6"/><rect stroke-width="0" fill="#fff" x="7" width="10" height="1"/><rect stroke-width="0" x="8" width="10" height="1" fill="#fff"/><rect stroke-width="0" x="9" width="10" height="1" fill="#fff"/><rect stroke-width="0" x="10" width="10" height="1" fill="#fff"/><rect stroke-width="0" x="11" width="10" height="1" fill="#fff"/><rect stroke-width="0" width="10" height="1" fill="#fff" x="12"/><rect stroke-width="0" width="10" height="1" fill="#fff" x="13"/><rect stroke-width="0" width="10" height="1" fill="#fff" x="14"/><rect stroke-width="0" x="15" width="10" height="1" fill="#fff"/><rect stroke-width="0" y="1" width="10" height="1" fill="#fff"/><rect stroke-width="0" x="1" y="1" width="10" height="1" fill="#fff"/><rect stroke-width="0" x="2" y="1" width="10" height="1" fill="#fff"/><rect stroke-width="0" x="3" y="1" width="10" height="1" fill="#fff"/><rect stroke-width="0" fill="#fff" x="4" y="1" width="10" height="1"/><rect stroke-width="0" x="5" y="1" width="10" height="1" fill="#fff"/><rect stroke-width="0" y="1" width="10" height="1" fill="#fff" x="6"/><rect stroke-width="0" width="10" height="1" fill="#fff" x="7" y="1"/><rect stroke-width="0" height="1" fill="#fff" x="8" y="1" width="10"/><rect stroke-width="0" width="10" height="1" fill="#fff" x="9" y="1"/><rect stroke-width="0" x="10" y="1" width="10" height="1" fill="#fff"/><rect stroke-width="0" x="11" y="1" width="10" height="1" fill="#fff"/><rect stroke-width="0" x="13" y="1" width="10" height="1" fill="#fff"/><rect stroke-width="0" fill="#fff" x="14" y="1" width="10" height="1"/><rect stroke-width="0" x="15" y="1" width="10" height="1" fill="#fff"/><rect stroke-width="0" height="1" fill="#fff" y="2" width="10"/><rect stroke-width="0" x="1" y="2" width="10" height="1" fill="#fff"/><rect stroke-width="0" x="2" y="2" width="10" height="1" fill="#fff"/><rect stroke-width="0" fill="#fff" x="3" y="2" width="10" height="1"/><rect stroke-width="0" y="2" width="10" height="1" fill="#fff" x="4"/><rect stroke-width="0" y="2" width="10" height="1" fill="#fff" x="5"/><rect stroke-width="0" x="6" y="2" width="10" height="1" fill="#fff"/><rect stroke-width="0" width="10" height="1" fill="#fff" x="7" y="2"/><rect stroke-width="0" x="8" y="2" width="10" height="1" fill="#fff"/><rect stroke-width="0" fill="#fff" x="9" y="2" width="10" height="1"/><rect stroke-width="0" y="2" width="10" height="1" fill="#fff" x="10"/><rect stroke-width="0" width="10" height="1" fill="#fff" x="13" y="2"/><rect stroke-width="0" fill="#fff" x="14" y="2" width="10" height="1"/><rect stroke-width="0" fill="#fff" x="15" y="2" width="10" height="1"/><rect stroke-width="0" y="3" width="10" height="1" fill="#fff"/><rect stroke-width="0" x="9" y="3" width="10" height="1" fill="#fff"/><rect stroke-width="0" y="3" width="10" height="1" fill="#fff" x="15"/><rect stroke-width="0" height="1" fill="#fff" y="4" width="10"/><rect stroke-width="0" fill="#fff" x="1" y="4" width="10" height="1"/><rect stroke-width="0" x="2" y="4" width="10" height="1" fill="#fff"/><rect stroke-width="0" x="3" y="4" width="10" height="1" fill="#fff"/><rect stroke-width="0" x="4" y="4" width="10" height="1" fill="#fff"/><rect stroke-width="0" x="5" y="4" width="10" height="1" fill="#fff"/><rect stroke-width="0" y="4" width="10" height="1" fill="#fff" x="6"/><rect stroke-width="0" fill="#fff" x="7" y="4" width="10" height="1"/><rect stroke-width="0" height="1" fill="#fff" x="8" y="4" width="10"/><rect stroke-width="0" fill="#fff" x="9" y="4" width="10" height="1"/><rect stroke-width="0" x="10" y="4" width="10" height="1" fill="#fff"/><rect stroke-width="0" y="4" width="10" height="1" fill="#fff" x="13"/><rect stroke-width="0" x="15" y="4" width="10" height="1" fill="#fff"/><rect stroke-width="0" height="1" fill="#fff" y="5" width="10"/><rect stroke-width="0" x="1" y="5" width="10" height="1" fill="#fff"/><rect stroke-width="0" x="2" y="5" width="10" height="1" fill="#fff"/><rect stroke-width="0" x="3" y="5" width="10" height="1" fill="#fff"/><rect stroke-width="0" fill="#fff" x="4" y="5" width="10" height="1"/><rect stroke-width="0" height="1" fill="#fff" x="5" y="5" width="10"/><rect stroke-width="0" x="6" y="5" width="10" height="1" fill="#fff"/><rect stroke-width="0" x="7" y="5" width="10" height="1" fill="#fff"/><rect stroke-width="0" fill="#fff" x="8" y="5" width="10" height="1"/><rect stroke-width="0" width="10" height="1" fill="#fff" x="9" y="5"/><rect stroke-width="0" x="10" y="5" width="10" height="1" fill="#fff"/><rect stroke-width="0" x="11" y="5" width="10" height="1" fill="#fff"/><rect stroke-width="0" width="10" height="1" fill="#fff" x="13" y="5"/><rect stroke-width="0" fill="#fff" x="15" y="5" width="10" height="1"/><rect stroke-width="0" y="6" width="10" height="1" fill="#fff"/><rect stroke-width="0" x="9" y="6" width="10" height="1" fill="#fff"/><rect stroke-width="0" x="10" y="6" width="10" height="1" fill="#fff"/><rect stroke-width="0" height="1" fill="#fff" x="11" y="6" width="10"/><rect stroke-width="0" x="12" y="6" width="10" height="1" fill="#fff"/><rect stroke-width="0" y="6" width="10" height="1" fill="#fff" x="13"/><rect stroke-width="0" x="15" y="6" width="10" height="1" fill="#fff"/><rect stroke-width="0" y="7" width="10" height="1" fill="#fff"/><rect stroke-width="0" height="1" fill="#fff" x="1" y="7" width="10"/><rect stroke-width="0" width="10" height="1" fill="#fff" x="2" y="7"/><rect stroke-width="0" y="7" width="10" height="1" fill="#fff" x="3"/><rect stroke-width="0" width="10" height="1" fill="#fff" x="4" y="7"/><rect stroke-width="0" fill="#fff" x="5" y="7" width="10" height="1"/><rect stroke-width="0" x="6" y="7" width="10" height="1" fill="#fff"/><rect stroke-width="0" x="7" y="7" width="10" height="1" fill="#fff"/><rect stroke-width="0" x="8" y="7" width="10" height="1" fill="#fff"/><rect stroke-width="0" width="10" height="1" fill="#fff" x="9" y="7"/><rect stroke-width="0" x="10" y="7" width="10" height="1" fill="#fff"/><rect stroke-width="0" x="11" y="7" width="10" height="1" fill="#fff"/><rect stroke-width="0" x="12" y="7" width="10" height="1" fill="#fff"/><rect stroke-width="0" x="13" y="7" width="10" height="1" fill="#fff"/><rect stroke-width="0" x="15" y="7" width="10" height="1" fill="#fff"/><rect stroke-width="0" y="8" width="10" height="1" fill="#fff"/><rect stroke-width="0" width="10" height="1" fill="#fff" x="1" y="8"/><rect stroke-width="0" width="10" height="1" fill="#fff" x="2" y="8"/><rect stroke-width="0" x="3" y="8" width="10" height="1" fill="#fff"/><rect stroke-width="0" fill="#fff" x="4" y="8" width="10" height="1"/><rect stroke-width="0" x="5" y="8" width="10" height="1" fill="#fff"/><rect stroke-width="0" x="6" y="8" width="10" height="1" fill="#fff"/><rect stroke-width="0" width="10" height="1" fill="#fff" x="7" y="8"/><rect stroke-width="0" width="10" height="1" fill="#fff" x="8" y="8"/><rect stroke-width="0" x="9" y="8" width="10" height="1" fill="#fff"/><rect stroke-width="0" fill="#fff" x="10" y="8" width="10" height="1"/><rect stroke-width="0" height="1" fill="#fff" x="11" y="8" width="10"/><rect stroke-width="0" width="10" height="1" fill="#fff" x="12" y="8"/><rect stroke-width="0" x="13" y="8" width="10" height="1" fill="#fff"/><rect stroke-width="0" x="15" y="8" width="10" height="1" fill="#fff"/><rect stroke-width="0" y="9" width="10" height="1" fill="#fff"/><rect stroke-width="0" height="1" fill="#fff" x="9" y="9" width="10"/><rect stroke-width="0" height="1" fill="#fff" x="10" y="9" width="10"/><rect stroke-width="0" x="11" y="9" width="10" height="1" fill="#fff"/><rect stroke-width="0" x="12" y="9" width="10" height="1" fill="#fff"/><rect stroke-width="0" x="13" y="9" width="10" height="1" fill="#fff"/><rect stroke-width="0" width="10" height="1" fill="#fff" x="15" y="9"/><rect stroke-width="0" y="10" width="10" height="1" fill="#fff"/><rect stroke-width="0" y="10" width="10" height="1" fill="#fff" x="1"/><rect stroke-width="0" fill="#fff" x="2" y="10" width="10" height="1"/><rect stroke-width="0" fill="#fff" x="3" y="10" width="10" height="1"/><rect stroke-width="0" x="4" y="10" width="10" height="1" fill="#fff"/><rect stroke-width="0" x="5" y="10" width="10" height="1" fill="#fff"/><rect stroke-width="0" fill="#fff" x="6" y="10" width="10" height="1"/><rect stroke-width="0" x="7" y="10" width="10" height="1" fill="#fff"/><rect stroke-width="0" x="8" y="10" width="10" height="1" fill="#fff"/><rect stroke-width="0" fill="#fff" x="9" y="10" width="10" height="1"/><rect stroke-width="0" x="10" y="10" width="10" height="1" fill="#fff"/><rect stroke-width="0" x="11" y="10" width="10" height="1" fill="#fff"/><rect stroke-width="0" height="1" fill="#fff" x="13" y="10" width="10"/><rect stroke-width="0" y="10" width="10" height="1" fill="#fff" x="15"/><rect stroke-width="0" fill="#fff" y="11" width="10" height="1"/><rect stroke-width="0" y="11" width="10" height="1" fill="#fff" x="1"/><rect stroke-width="0" x="2" y="11" width="10" height="1" fill="#fff"/><rect stroke-width="0" x="3" y="11" width="10" height="1" fill="#fff"/><rect stroke-width="0" x="4" y="11" width="10" height="1" fill="#fff"/><rect stroke-width="0" x="5" y="11" width="10" height="1" fill="#fff"/><rect stroke-width="0" x="6" y="11" width="10" height="1" fill="#fff"/><rect stroke-width="0" height="1" fill="#fff" x="7" y="11" width="10"/><rect stroke-width="0" fill="#fff" x="8" y="11" width="10" height="1"/><rect stroke-width="0" height="1" fill="#fff" x="9" y="11" width="10"/><rect stroke-width="0" x="10" y="11" width="10" height="1" fill="#fff"/><rect stroke-width="0" fill="#fff" x="13" y="11" width="10" height="1"/><rect stroke-width="0" x="15" y="11" width="10" height="1" fill="#fff"/><rect stroke-width="0" y="12" width="10" height="1" fill="#fff"/><rect stroke-width="0" x="9" y="12" width="10" height="1" fill="#fff"/><rect stroke-width="0" x="15" y="12" width="10" height="1" fill="#fff"/><rect stroke-width="0" height="1" fill="#fff" y="13" width="10"/><rect stroke-width="0" x="1" y="13" width="10" height="1" fill="#fff"/><rect stroke-width="0" y="13" width="10" height="1" fill="#fff" x="2"/><rect stroke-width="0" height="1" fill="#fff" x="3" y="13" width="10"/><rect stroke-width="0" x="4" y="13" width="10" height="1" fill="#fff"/><rect stroke-width="0" y="13" width="10" height="1" fill="#fff" x="5"/><rect stroke-width="0" x="6" y="13" width="10" height="1" fill="#fff"/><rect stroke-width="0" width="10" height="1" fill="#fff" x="7" y="13"/><rect stroke-width="0" fill="#fff" x="8" y="13" width="10" height="1"/><rect stroke-width="0" y="13" width="10" height="1" fill="#fff" x="9"/><rect stroke-width="0" width="10" height="1" fill="#fff" x="10" y="13"/><rect stroke-width="0" x="13" y="13" width="10" height="1" fill="#fff"/><rect stroke-width="0" y="13" width="10" height="1" fill="#fff" x="14"/><rect stroke-width="0" x="15" y="13" width="10" height="1" fill="#fff"/><rect stroke-width="0" width="10" height="1" fill="#fff" y="14"/><rect stroke-width="0" x="1" y="14" width="10" height="1" fill="#fff"/><rect stroke-width="0" x="2" y="14" width="10" height="1" fill="#fff"/><rect stroke-width="0" height="1" fill="#fff" x="3" y="14" width="10"/><rect stroke-width="0" fill="#fff" x="4" y="14" width="10" height="1"/><rect stroke-width="0" x="5" y="14" width="10" height="1" fill="#fff"/><rect stroke-width="0" width="10" height="1" fill="#fff" x="6" y="14"/><rect stroke-width="0" x="7" y="14" width="10" height="1" fill="#fff"/><rect stroke-width="0" x="8" y="14" width="10" height="1" fill="#fff"/><rect stroke-width="0" x="9" y="14" width="10" height="1" fill="#fff"/><rect stroke-width="0" x="10" y="14" width="10" height="1" fill="#fff"/><rect stroke-width="0" x="11" y="14" width="10" height="1" fill="#fff"/><rect stroke-width="0" height="1" fill="#fff" x="13" y="14" width="10"/><rect stroke-width="0" x="14" y="14" width="10" height="1" fill="#fff"/><rect stroke-width="0" y="14" width="10" height="1" fill="#fff" x="15"/><rect stroke-width="0" width="10" height="1" fill="#fff" y="15"/><rect stroke-width="0" width="10" height="1" fill="#fff" x="1" y="15"/><rect stroke-width="0" x="2" y="15" width="10" height="1" fill="#fff"/><rect stroke-width="0" height="1" fill="#fff" x="3" y="15" width="10"/><rect stroke-width="0" height="1" fill="#fff" x="4" y="15" width="10"/><rect stroke-width="0" x="5" y="15" width="10" height="1" fill="#fff"/><rect stroke-width="0" y="15" width="10" height="1" fill="#fff" x="6"/><rect stroke-width="0" width="10" height="1" fill="#fff" x="7" y="15"/><rect stroke-width="0" width="10" height="1" fill="#fff" x="8" y="15"/><rect stroke-width="0" x="9" y="15" width="10" height="1" fill="#fff"/><rect stroke-width="0" x="10" y="15" width="10" height="1" fill="#fff"/><rect stroke-width="0" x="11" y="15" width="10" height="1" fill="#fff"/><rect stroke-width="0" y="15" width="10" height="1" fill="#fff" x="12"/><rect stroke-width="0" x="13" y="15" width="10" height="1" fill="#fff"/><rect stroke-width="0" x="14" y="15" width="10" height="1" fill="#fff"/><rect stroke-width="0" x="15" y="15" width="10" height="1" fill="#fff"/></g><g fill="#006d6d"><rect stroke-width="0" height="1" x="12" y="1" width="10"/><rect stroke-width="0" x="11" y="2" width="10" height="1"/><rect stroke-width="0" width="10" height="1" x="12" y="2"/><rect stroke-width="0" x="10" y="3" width="10" height="1"/><rect stroke-width="0" y="3" width="10" height="1" x="11"/><rect stroke-width="0" x="12" y="3" width="10" height="1"/><rect stroke-width="0" x="13" y="3" width="10" height="1"/><rect stroke-width="0" width="10" height="1" x="14" y="3"/><rect stroke-width="0" height="1" x="11" y="4" width="10"/><rect stroke-width="0" x="12" y="4" width="10" height="1"/><rect stroke-width="0" x="14" y="4" width="10" height="1"/><rect stroke-width="0" height="1" x="12" y="5" width="10"/><rect stroke-width="0" x="14" y="5" width="10" height="1"/><rect stroke-width="0" x="14" y="6" width="10" height="1"/><rect stroke-width="0" x="14" y="7" width="10" height="1"/><rect stroke-width="0" width="10" height="1" x="14" y="8"/><rect stroke-width="0" x="14" y="9" width="10" height="1"/><rect stroke-width="0" x="12" y="10" width="10" height="1"/><rect stroke-width="0" x="14" y="10" width="10" height="1"/><rect stroke-width="0" y="11" width="10" height="1" x="11"/><rect stroke-width="0" x="12" y="11" width="10" height="1"/><rect stroke-width="0" x="14" y="11" width="10" height="1"/><rect stroke-width="0" x="10" y="12" width="10" height="1"/><rect stroke-width="0" x="11" y="12" width="10" height="1"/><rect stroke-width="0" x="12" y="12" width="10" height="1"/><rect stroke-width="0" y="12" width="10" height="1" x="13"/><rect stroke-width="0" x="14" y="12" width="10" height="1"/><rect stroke-width="0" width="10" height="1" x="11" y="13"/><rect stroke-width="0" y="13" width="10" height="1" x="12"/><rect stroke-width="0" x="12" y="14" width="10" height="1"/></g><g fill="#db0000"><rect stroke-width="0" width="10" height="1" x="1" y="3"/><rect stroke-width="0" x="2" y="3" width="10" height="1"/><rect stroke-width="0" x="3" y="3" width="10" height="1"/><rect stroke-width="0" width="10" height="1" x="4" y="3"/><rect stroke-width="0" y="3" width="10" height="1" x="5"/><rect stroke-width="0" y="3" width="10" height="1" x="6"/><rect stroke-width="0" y="3" width="10" height="1" x="7"/><rect stroke-width="0" width="10" height="1" x="8" y="3"/><rect stroke-width="0" x="1" y="12" width="10" height="1"/><rect stroke-width="0" x="2" y="12" width="10" height="1"/><rect stroke-width="0" x="3" y="12" width="10" height="1"/><rect stroke-width="0" width="10" height="1" x="4" y="12"/><rect stroke-width="0" x="5" y="12" width="10" height="1"/><rect stroke-width="0" width="10" height="1" x="6" y="12"/><rect stroke-width="0" y="12" width="10" height="1" x="7"/><rect stroke-width="0" x="8" y="12" width="10" height="1"/></g><g fill="#242424"><rect stroke-width="0" x="1" y="6" width="10" height="1"/><rect stroke-width="0" width="10" height="1" x="2" y="6"/><rect stroke-width="0" x="3" y="6" width="10" height="1"/><rect stroke-width="0" x="4" y="6" width="10" height="1"/><rect stroke-width="0" x="5" y="6" width="10" height="1"/><rect stroke-width="0" height="1" x="6" y="6" width="10"/><rect stroke-width="0" height="1" x="7" y="6" width="10"/><rect stroke-width="0" width="10" height="1" x="8" y="6"/><rect stroke-width="0" width="10" height="1" x="1" y="9"/><rect stroke-width="0" x="2" y="9" width="10" height="1"/><rect stroke-width="0" x="3" y="9" width="10" height="1"/><rect stroke-width="0" width="10" height="1" x="4" y="9"/><rect stroke-width="0" x="5" y="9" width="10" height="1"/><rect stroke-width="0" x="6" y="9" width="10" height="1"/><rect stroke-width="0" width="10" height="1" x="7" y="9"/><rect stroke-width="0" x="8" y="9" width="10" height="1"/></g></svg>
